<svg width="199" height="251" viewBox="0 0 199 251" fill="none" xmlns="http://www.w3.org/2000/svg">
<g clip-path="url(#clip0_15_358)">
<path d="M7.46844 228.344L181.569 227.131L199 228.909L196.72 203.818L198.839 191.551L181.959 189.903L149.001 188.613H98.3752L95.8194 189.903L23.3542 186.513L6.74915 193.544L10.3227 208.581L7.46844 228.344Z" fill="white"/>
<path d="M199 153.82L24.8998 155.034L4.33105 151.515L8.87639 183.391L6.74911 193.544L24.8922 193.994L59.625 192.147L107.565 194.651L110.641 192.254L183.114 193.445L198.839 191.551L196.942 168.056L199 153.82Z" fill="#220D0F"/>
<path d="M35.9954 196.374L28.5117 220.427H20.9668L13.1387 196.374H20.9361L24.7545 209.488C25.0147 210.267 25.2443 211.03 25.4509 211.778L29.9044 196.374H35.9878H35.9954Z" fill="#220D0F"/>
<path d="M47.9863 220.801C44.5964 220.801 41.8264 219.679 39.6915 217.434C37.5565 215.19 36.4852 212.19 36.4852 208.427C36.4852 204.664 37.503 201.862 39.5537 199.519C41.5968 197.176 44.4357 196 48.0628 196C51.4221 196 54.1539 197.107 56.2659 199.313C58.3778 201.519 59.4338 204.473 59.4338 208.16C59.4338 211.847 58.3702 215.038 56.2352 217.343C54.1003 219.648 51.3532 220.801 47.9863 220.801ZM47.948 215.335C49.1953 215.335 50.0906 214.793 50.6416 213.702C51.1925 212.61 51.4604 210.626 51.4604 207.732C51.4604 203.549 50.3355 201.458 48.0858 201.458C45.6601 201.458 44.4434 203.839 44.4434 208.61C44.4434 213.083 45.6065 215.328 47.9404 215.328L47.948 215.335Z" fill="#220D0F"/>
<path d="M81.311 196.374L73.7661 210.244V220.427H66.5731V210.244L58.4619 196.374H66.5578L70.7818 204.305L74.8297 196.374H81.3034H81.311Z" fill="#220D0F"/>
<path d="M94.2201 220.427L92.858 215.686H86.3997L84.9534 220.427H78.9465L86.392 196.374H94.2201L101.78 220.427H94.2277H94.2201ZM87.6546 210.435H91.5572L89.6059 203.458L87.6546 210.435Z" fill="#220D0F"/>
<path d="M124.063 206.946V220.427H120.444C120.153 219.427 119.824 218.587 119.472 217.908C117.972 219.831 115.761 220.801 112.83 220.801C109.723 220.801 107.167 219.717 105.163 217.549C103.158 215.381 102.163 212.45 102.163 208.748C102.163 205.046 103.135 202.13 105.071 199.679C107.007 197.229 109.892 196.008 113.718 196.008C116.587 196.008 118.906 196.733 120.658 198.191C122.41 199.649 123.551 201.717 124.071 204.397L116.901 205.099C116.549 202.595 115.447 201.343 113.595 201.343C111.169 201.343 109.953 203.649 109.953 208.252C109.953 211.038 110.343 212.87 111.116 213.755C111.896 214.641 112.838 215.083 113.94 215.083C114.835 215.083 115.6 214.816 116.227 214.274C116.855 213.732 117.176 212.992 117.192 212.053H113.197V206.939H124.063V206.946Z" fill="#220D0F"/>
<path d="M146.109 214.679V220.427H127.966V196.374H146.109V201.923H135.228V205.412H144.028V210.755H135.228V214.686H146.109V214.679Z" fill="#220D0F"/>
<path d="M170.504 220.427H162.301L158.781 211.229H156.447V220.427H149.047V196.374H161.643C164.42 196.374 166.578 197.023 168.116 198.321C169.654 199.618 170.42 201.328 170.42 203.458C170.42 204.847 170.136 206.068 169.57 207.129C169.004 208.19 167.864 209.129 166.142 209.939L170.504 220.427ZM156.439 206.084H159.599C160.533 206.084 161.275 205.893 161.842 205.504C162.408 205.114 162.691 204.549 162.691 203.794C162.691 202.252 161.742 201.488 159.844 201.488H156.431V206.091L156.439 206.084Z" fill="#220D0F"/>
<path d="M171.514 213.465L178.385 212.229C178.959 214.167 180.444 215.137 182.839 215.137C184.698 215.137 185.632 214.641 185.632 213.656C185.632 213.137 185.418 212.74 184.989 212.45C184.561 212.16 183.788 211.908 182.686 211.687C178.454 210.877 175.745 209.824 174.544 208.519C173.343 207.213 172.746 205.679 172.746 203.916C172.746 201.649 173.61 199.763 175.332 198.259C177.054 196.756 179.541 196 182.778 196C187.69 196 190.935 197.969 192.511 201.901L186.382 203.748C185.747 202.137 184.453 201.336 182.51 201.336C180.895 201.336 180.092 201.832 180.092 202.832C180.092 203.275 180.275 203.626 180.643 203.87C181.01 204.114 181.714 204.351 182.762 204.572C185.647 205.183 187.698 205.717 188.915 206.191C190.131 206.656 191.141 207.458 191.953 208.595C192.764 209.732 193.169 211.068 193.169 212.61C193.169 215.045 192.182 217.015 190.2 218.526C188.218 220.037 185.624 220.793 182.41 220.793C176.534 220.793 172.906 218.35 171.529 213.465H171.514Z" fill="#220D0F"/>
<path d="M52.0801 103.905C80.8431 103.905 104.16 80.6453 104.16 51.9526C104.16 23.26 80.8431 0 52.0801 0C23.317 0 0 23.26 0 51.9526C0 80.6453 23.317 103.905 52.0801 103.905Z" fill="#EAA423"/>
<path d="M101.75 149.202C102.018 149.27 102.301 149.331 102.561 149.415C102.829 149.499 103.074 149.598 103.341 149.698V149.713C103.341 149.713 102.461 153.896 100.77 155.285L97.2886 154.362L95.6817 156.659L99.6913 158.774L99.7066 158.789C99.8214 158.972 100.816 160.621 97.9849 161.896H97.9696L97.3728 161.354L94.5721 158.827H94.5568L93.5161 157.888C93.5161 157.888 97.8242 146.889 97.8242 138.522V138.469H99.6454C99.6454 138.935 100.342 139.477 101.382 139.759C102.063 139.874 102.676 140.011 103.257 140.171C103.54 140.255 103.801 140.339 104.068 140.438C104.336 140.522 104.581 140.622 104.811 140.721C104.811 140.721 106.747 144.423 104.244 146.805L102.982 146.705C102.982 146.705 102.086 147.415 101.742 149.202H101.75Z" fill="white"/>
<path d="M104.749 130.965C104.749 130.965 105.675 133.942 104.252 137.858C103.158 137.66 102.132 137.576 101.382 137.629C100.143 137.713 99.6454 138.057 99.6454 138.469H97.8242C97.8242 138.042 97.8242 137.607 97.8089 137.194C97.8089 136.782 97.8089 136.37 97.7936 135.973C97.7783 135.347 97.763 134.736 97.7247 134.141C97.7094 133.599 97.6711 133.065 97.6405 132.553C97.6252 132.5 97.6252 132.439 97.6252 132.385C97.6099 131.92 97.5717 131.462 97.5258 131.011C97.4951 130.469 97.4416 129.935 97.3804 129.424L98.9031 129.256L99.1557 130.759L99.4388 132.462L101.046 131.225C102.438 130.798 103.701 130.66 104.826 130.759C104.795 130.889 104.757 130.958 104.757 130.958L104.749 130.965Z" fill="white"/>
<path d="M104.252 126.859V126.874C103.969 126.889 103.709 126.943 103.456 127.004C103.257 127.034 103.074 127.088 102.89 127.134C102.79 127.149 102.691 127.187 102.591 127.218C102.423 127.248 102.262 127.301 102.109 127.37C101.941 127.416 101.796 127.485 101.643 127.538C101.459 127.622 101.275 127.691 101.115 127.767C101.03 127.798 100.946 127.836 100.862 127.882C100.633 127.996 100.418 128.111 100.235 128.233H100.219C100.089 128.317 99.9898 128.401 99.875 128.462C99.6913 128.576 99.5459 128.691 99.4082 128.79C99.0639 129.072 98.8955 129.256 98.8955 129.256L97.3727 129.424C97.0437 126.378 96.531 123.737 95.85 121.218L97.7094 120.706C97.8395 121.248 98.3522 121.431 98.3522 121.431L101.038 119.431C101.268 119.363 101.505 119.279 101.734 119.233C101.949 119.164 102.163 119.119 102.385 119.065C102.813 118.966 103.211 118.897 103.594 118.851C103.739 118.821 103.892 118.806 104.022 118.806C104.053 118.79 104.076 118.79 104.107 118.79H104.252C104.252 118.79 103.242 123.798 104.252 126.859Z" fill="white"/>
<path d="M104.252 115.058V115.073C100.755 115.539 98.7348 118.134 98.0002 119.439C97.6864 119.981 97.6329 120.401 97.7017 120.714L95.8423 121.225C95.6739 120.63 95.4903 120.035 95.3296 119.439C93.3554 115.47 93.1717 109.516 92.6437 107.913C91.2204 108.806 91.2204 116.63 91.2204 116.63C91.2204 116.63 88.1902 113.256 84.4407 113.806C85.1523 107.386 91.0368 96.5391 91.2204 91.379C90.1415 93.8598 86.5756 96.8826 86.5756 96.8826L86.4073 91.5393C86.4073 91.5393 86.04 92.7988 84.8003 96.8826C84.6167 92.0889 83.0097 92.4324 81.7701 86.7913C80.5075 81.1655 83.6908 83.4861 83.6908 83.4861C83.6908 83.4861 84.6167 86.2112 86.5756 86.7455C88.5345 87.2722 89.9731 84.2494 89.9731 84.2494C91.9321 86.9287 92.6437 85.57 92.6437 85.57C93.1717 83.4861 89.2462 76.7687 89.2462 76.7687L90.6848 74.9672C85.864 74.952 85.3283 73.3948 83.7214 73.3948C82.1145 73.3948 81.2192 73.2116 77.6533 76.4176C76.4137 72.5017 81.9308 68.5781 81.0508 66.8072C77.4696 59.8608 72.6641 58.9677 62.6629 58.441C52.983 57.9296 37.082 65.7843 36.1407 66.25C36.9213 65.6393 48.4759 56.693 55.5388 52.2122C62.8465 47.6017 67.6597 48.4948 70.3455 47.9452C73.0161 47.4185 84.9687 50.4413 84.9687 50.4413L81.7701 53.4641C81.7701 53.4641 79.2526 51.7847 73.9803 51.3038C73.7813 51.2886 73.7201 51.5634 73.9114 51.6244C77.8522 52.9221 81.7165 56.7541 84.4407 61.2501C84.808 58.1739 87.6546 53.0977 100.487 52.0366C100.487 52.0366 98.4976 56.7846 100.487 60.1738C97.5028 60.502 94.7327 61.2119 92.2994 61.9905C87.2949 63.5935 85.864 70.5399 85.864 70.5399L92.8274 65.563C95.5974 64.3034 98.0308 63.708 100.189 63.563C100.189 63.563 99.0485 73.6161 100.456 76.9748C95.9494 78.1122 95.1536 80.4938 95.1536 80.4938C95.1536 80.4938 96.9442 79.9671 100.77 79.8144C100.87 80.0282 102.415 83.8983 102.079 85.5547V85.57C99.7601 86.5928 97.2885 88.318 97.2885 88.318L97.4569 89.0432C97.541 89.3867 99.6301 89.1729 102.132 88.9134C102.132 88.9134 101.007 91.9744 102.132 95.4475C102.163 95.5468 102.201 95.6613 102.232 95.7605C102.331 95.7452 102.431 95.73 102.53 95.6918C102.431 95.7223 102.331 95.7452 102.232 95.7758H102.201C102.002 95.8292 101.803 95.875 101.604 95.9284C100.808 96.1269 100.066 96.4093 99.3469 96.7223C99.0026 96.875 98.6812 97.02 98.3522 97.1879C98.0843 97.3177 97.8395 97.4704 97.587 97.6307C97.388 97.7299 97.2043 97.8444 97.0207 97.9589C96.4697 98.3101 95.9571 98.6841 95.475 99.0658C95.1765 99.31 94.8781 99.5619 94.595 99.8062C94.3119 100.058 94.067 100.302 93.8145 100.547C93.6844 100.661 93.5696 100.776 93.4472 100.913C93.1641 101.195 92.9345 101.478 92.7202 101.722C92.6361 101.806 92.5672 101.89 92.506 101.966C91.8632 102.745 91.4959 103.302 91.4117 103.424C91.5112 103.356 91.9244 103.096 92.6054 102.714C92.7049 102.646 92.8044 102.6 92.9039 102.547C93.7456 102.066 94.9087 101.486 96.2555 100.913C96.4238 100.844 96.5845 100.76 96.7682 100.699C98.3598 100.058 100.219 99.4245 102.14 99.0963L103.517 105.295C98.3445 106.058 95.4903 110.386 96.2096 112.34C99.1403 110.172 101.482 109.195 103.456 108.936C103.471 111.249 103.64 114.012 104.252 115.035V115.058Z" fill="white"/>
<path d="M89.9655 123.042C89.9426 123.179 89.9273 123.309 89.9043 123.462C89.7436 124.431 89.4681 125.538 89.0549 126.798C88.8483 127.439 88.5958 128.126 88.3127 128.851C88.1673 129.217 88.0143 129.584 87.8459 129.973C87.6776 130.362 87.5169 130.752 87.3256 131.164C86.4073 133.202 85.2136 135.515 83.6985 138.164C83.6143 138.316 83.5225 138.454 83.4383 138.591C83.2317 138.942 83.0174 139.286 82.8032 139.622C82.543 140.034 82.2675 140.431 81.9997 140.828C81.9079 140.958 81.8237 141.095 81.7319 141.225C81.5406 141.492 81.3416 141.767 81.1427 142.026C80.8136 142.484 80.454 142.927 80.0867 143.354C79.9413 143.538 79.7883 143.713 79.6276 143.889C79.574 143.942 79.5281 143.996 79.4822 144.049C79.3445 144.194 79.2144 144.332 79.0766 144.484C78.9925 144.583 78.9006 144.675 78.8088 144.767C78.4568 145.148 78.0819 145.515 77.7069 145.866C77.6916 145.881 77.6763 145.896 77.661 145.912C77.5845 145.98 77.5156 146.049 77.4391 146.118C77.2325 146.309 77.0182 146.507 76.8116 146.683C76.6203 146.851 76.4214 147.011 76.2301 147.179C76.1994 147.202 76.1765 147.217 76.1535 147.24C76.0158 147.354 75.8781 147.461 75.7327 147.568C75.5949 147.683 75.4495 147.797 75.3042 147.904C75.0057 148.133 74.6996 148.362 74.3936 148.568C74.3859 148.576 74.3783 148.583 74.3706 148.591C74.1946 148.713 74.0033 148.835 73.8273 148.965C73.6283 149.102 73.4217 149.232 73.2228 149.362C72.6795 149.721 72.1285 150.041 71.5852 150.339C71.5393 150.362 71.5011 150.385 71.4552 150.408C71.4016 150.446 71.3404 150.476 71.2792 150.507C71.1873 150.56 71.0879 150.606 70.996 150.652C70.843 150.744 70.6823 150.82 70.5216 150.896C70.4145 150.957 70.3073 151.003 70.2002 151.049C70.1773 151.064 70.1543 151.072 70.1313 151.087C69.9936 151.156 69.8559 151.224 69.7105 151.286C69.4503 151.408 69.1901 151.522 68.93 151.629C68.5168 151.812 68.1112 151.973 67.698 152.133C67.5143 152.209 67.3077 152.285 67.1164 152.347C66.8792 152.438 66.6267 152.522 66.3895 152.598C66.2823 152.637 66.1752 152.675 66.0604 152.705C65.9686 152.736 65.8768 152.766 65.785 152.797C65.7467 152.805 65.7161 152.82 65.6778 152.827C65.0733 153.011 64.4765 153.186 63.8719 153.331C63.6653 153.385 63.4511 153.43 63.2445 153.476C62.9307 153.553 62.6094 153.621 62.2956 153.675C62.0661 153.728 61.8288 153.766 61.6069 153.805C61.3391 153.858 61.0636 153.896 60.8035 153.934C60.2372 154.018 59.6863 154.087 59.1353 154.148C58.8292 154.179 58.5155 154.201 58.2094 154.224C58.0717 154.24 57.9339 154.247 57.7885 154.255C57.4518 154.278 57.1152 154.293 56.7861 154.308H56.7019C56.5948 154.308 56.48 154.316 56.3729 154.316C56.0745 154.324 55.7684 154.331 55.4776 154.331C54.8425 154.331 54.215 154.316 53.6029 154.285C53.0519 154.255 52.5009 154.217 51.973 154.163C51.3149 154.102 50.6644 154.018 50.037 153.919C49.7692 153.881 49.4937 153.835 49.2259 153.782C48.958 153.736 48.6902 153.682 48.43 153.629C45.3156 152.972 42.5303 151.942 40.0587 150.69C39.722 150.522 39.3853 150.347 39.0639 150.163C37.4034 149.263 35.8806 148.255 34.5262 147.217C34.2048 146.973 33.8911 146.713 33.585 146.469C33.5774 146.469 33.5774 146.461 33.5774 146.461C33.2713 146.217 32.9652 145.957 32.6821 145.706C27.2491 140.988 24.6474 136.004 24.3872 135.507C24.3872 135.507 24.3949 135.507 24.4025 135.515L24.5173 135.629C24.5173 135.629 24.5709 135.683 24.6015 135.713C24.6627 135.782 24.7392 135.851 24.831 135.935C24.8693 135.981 24.9152 136.026 24.9688 136.072C25.0682 136.171 25.1754 136.271 25.2978 136.385C25.5427 136.614 25.8334 136.889 26.1625 137.187C26.2467 137.255 26.3308 137.332 26.4227 137.416C26.8665 137.82 27.3639 138.255 27.9378 138.729C28.0449 138.82 28.1597 138.912 28.2821 139.011C28.7565 139.408 29.2539 139.813 29.7972 140.232C30.065 140.446 30.3482 140.66 30.6313 140.874H30.639C30.9221 141.095 31.2205 141.316 31.5189 141.53C32.4831 142.232 33.5391 142.95 34.6486 143.652C34.9241 143.835 35.2149 144.011 35.498 144.186C37.8319 145.606 40.426 146.942 43.1731 147.973C44.8565 148.599 46.6089 149.11 48.3918 149.453C51.2766 150.003 54.2456 150.102 57.207 149.53C63.7419 148.263 68.5474 145.927 72.1056 143.141C73.0391 142.4 73.8962 141.637 74.669 140.858C77.4467 138.026 79.222 134.927 80.4081 132.08C80.5152 131.813 80.6223 131.538 80.7218 131.271C80.8596 130.912 80.9896 130.569 81.1121 130.233C81.2116 129.935 81.311 129.63 81.4029 129.347C81.4947 129.057 81.5789 128.767 81.663 128.492C81.7396 128.21 81.8161 127.935 81.8926 127.668C81.9615 127.408 82.0303 127.141 82.0915 126.889C82.1222 126.767 82.1528 126.645 82.1834 126.515C82.3058 126.019 82.4129 125.569 82.5048 125.141C82.5277 125.034 82.5507 124.935 82.5736 124.836C82.6655 124.424 82.7496 124.065 82.8261 123.737C82.9256 123.325 83.0251 122.935 83.1169 122.554C83.247 122.05 83.3771 121.576 83.5225 121.126C83.5914 120.905 83.6602 120.683 83.7291 120.477C83.8668 120.057 84.0046 119.676 84.1576 119.317C84.2341 119.141 84.303 118.974 84.3795 118.806C84.4943 118.569 84.6091 118.34 84.7392 118.141C84.8539 117.935 84.9764 117.752 85.1141 117.592C85.8411 116.668 86.7057 116.409 87.8153 116.958C88.3892 117.241 88.9555 117.691 89.3763 118.393C89.9579 119.355 90.2563 120.813 89.9579 123.019L89.9655 123.042Z" fill="white"/>
<path d="M89.9043 123.462C89.7436 124.424 89.4604 125.538 89.0549 126.798C89.4758 125.538 89.7436 124.439 89.9043 123.462ZM89.0549 126.798C88.8406 127.439 88.5958 128.126 88.3126 128.851C88.5958 128.126 88.8483 127.439 89.0549 126.798ZM81.7242 141.225C81.816 141.095 81.9002 140.958 81.992 140.828C81.7089 141.232 81.4334 141.645 81.135 142.026C81.3339 141.767 81.5329 141.492 81.7242 141.225ZM83.5683 138.377C83.5224 138.446 83.4842 138.523 83.4383 138.591C83.5224 138.446 83.6143 138.316 83.6984 138.171C83.6449 138.24 83.6143 138.316 83.5683 138.377ZM82.6424 139.881C82.4282 140.209 82.2139 140.515 81.9997 140.828C82.2752 140.438 82.543 140.034 82.8031 139.622C82.7496 139.706 82.696 139.797 82.6424 139.881ZM80.079 143.354C80.454 142.927 80.8059 142.484 81.135 142.026C80.936 142.286 80.7294 142.545 80.5228 142.79C80.3774 142.98 80.232 143.171 80.0713 143.354H80.079ZM77.6533 145.919C77.6533 145.919 77.6839 145.889 77.6992 145.873C77.6074 145.957 77.5156 146.049 77.4237 146.133C77.5002 146.064 77.5691 145.996 77.6456 145.927L77.6533 145.919ZM77.6992 145.873C78.0742 145.522 78.4491 145.156 78.8011 144.774L78.5256 145.049C78.2655 145.324 77.9747 145.606 77.6992 145.873ZM74.3859 148.583C74.6919 148.377 74.998 148.148 75.2965 147.919C75.2123 147.98 75.1358 148.034 75.0592 148.087C74.8373 148.255 74.6078 148.415 74.3859 148.583ZM72.1055 143.179C73.0391 142.446 73.8961 141.683 74.669 140.896C73.8961 141.675 73.0467 142.438 72.1055 143.179ZM68.9146 151.652C69.1748 151.545 69.435 151.431 69.6951 151.308C69.6492 151.331 69.611 151.347 69.5727 151.362C69.3584 151.469 69.1289 151.568 68.9146 151.652ZM66.3741 152.621C66.6113 152.545 66.8639 152.461 67.1011 152.369C66.971 152.415 66.8486 152.461 66.7108 152.499C66.6037 152.537 66.4889 152.583 66.3741 152.621ZM65.762 152.82C65.8538 152.789 65.9456 152.759 66.0374 152.728C65.9533 152.759 65.8614 152.789 65.7696 152.812H65.762V152.82ZM48.3764 149.492C51.2613 150.049 54.2303 150.148 57.1916 149.576C63.7265 148.308 68.532 145.973 72.0902 143.179C68.532 145.965 63.7265 148.301 57.1916 149.568C54.2303 150.14 51.2613 150.041 48.3764 149.492ZM56.3346 154.354C56.4417 154.354 56.5565 154.346 56.6636 154.346C56.2504 154.362 55.8449 154.369 55.4317 154.369C55.7224 154.369 56.0285 154.362 56.3269 154.354H56.3346ZM48.3764 149.492C46.5858 149.148 44.8412 148.637 43.1577 148.011C44.8488 148.644 46.6012 149.156 48.3764 149.492Z" fill="#220D0F"/>
<path d="M150.371 146.179C136.115 139.713 136.712 133.423 136.712 133.423L138.105 128.645L146.491 124.462C146.491 124.462 150.708 123.851 151.902 115.783C153.095 107.699 153.409 104.714 153.409 104.714L162.691 98.7222L163.602 93.333C163.602 93.333 174.697 83.4555 179.196 79.2724C183.688 75.0893 186.68 69.7002 177.092 62.8225C167.496 55.9449 152.2 45.4719 152.2 45.4719C152.2 45.4719 147.402 39.4797 134.807 43.9681C122.204 48.4642 119.801 49.0596 119.801 49.0596C119.801 49.0596 114.712 46.0673 104.512 45.7696C103.135 45.7314 101.842 45.7467 100.602 45.8154C92.5979 46.2963 87.4021 48.7619 87.4021 48.7619L78.1201 45.7696C78.1201 45.7696 66.4125 38.2737 56.8167 45.7696C47.2134 53.2427 32.2306 65.5095 32.2306 65.5095C32.2306 65.5095 26.2237 71.204 32.2306 78.0816C38.2145 84.9669 46.0273 93.0277 46.0273 93.0277L46.6242 98.4245L56.5183 105.905L58.3319 116.065C58.3319 116.065 58.3319 121.462 63.4205 124.752L68.5244 128.042C68.5244 128.042 70.2921 137.332 69.3968 139.141C68.5091 140.942 51.8276 153.247 34.1207 137.087C16.4367 120.928 15.7404 95.4475 15.7404 95.4475C15.7404 95.4475 8.21073 126.821 25.9329 145.087C37.3039 156.804 49.5626 159.209 57.1917 159.232C57.5973 159.247 57.9569 159.232 58.3242 159.209L75.2889 159.026C79.5052 158.781 82.895 161.804 81.0968 163.11C76.5438 166.43 71.2256 170.98 72.0673 174.025C74.9139 184.475 105.446 184.475 105.446 184.475L115.348 175.926L110.94 175.361L102.546 174.285L97.3651 173.621C97.3651 173.621 98.7578 172.995 100.847 171.453C103.823 169.277 108.277 165.255 112.118 158.621C112.807 157.43 113.48 156.163 114.123 154.797L154.786 158.102C154.985 158.125 155.192 158.14 155.391 158.148C169.402 159.14 179.105 144.789 187.369 131.622C178.248 138.37 165.224 151.797 150.371 146.163V146.179ZM134.042 47.9451C134.042 47.9451 127.43 52.2122 126.007 54.006C124.576 55.7922 120.834 51.3267 120.834 51.3267C126.359 48.3192 134.049 47.9451 134.049 47.9451H134.042ZM66.7874 106.325C65.8921 97.6001 69.8176 89.2263 69.2743 87.6157C68.7463 89.4095 61.255 102.401 60.1913 102.745C59.1124 103.111 56.2581 98.1115 55.7378 95.4551C55.7378 91.0125 55.1868 90.4782 53.2279 89.7683C49.1111 89.4019 39.6684 81.0357 36.1026 77.5015C32.5443 73.9291 33.432 73.2192 41.987 70.1964C45.859 68.8223 50.1671 67.9598 54.1538 67.6468C58.9593 67.2575 63.3363 67.6773 66.0758 68.9521C65.9074 69.0361 65.762 69.1353 65.5707 69.2269C65.41 69.3262 65.2493 69.4407 65.058 69.5552C64.8438 69.7078 64.6066 69.8834 64.3617 70.0895C64.0862 70.3032 63.7801 70.5551 63.4817 70.8147C62.5788 71.5933 61.6069 72.5322 60.6504 73.5627C60.352 73.8756 60.0536 74.1886 59.7551 74.5168C59.3419 74.9825 58.9287 75.4405 58.5308 75.9061C58.1865 76.3107 57.8345 76.7152 57.4901 77.1351C56.8244 77.906 56.1969 78.6846 55.5924 79.4098C55.2251 79.8754 54.8808 80.3182 54.5288 80.7533C54.414 80.8983 54.2992 81.051 54.1997 81.1884C54.1079 81.3334 54.0084 81.4632 53.8937 81.6006C53.182 82.509 52.5622 83.3181 52.0801 83.9669C51.9347 84.1959 51.7893 84.402 51.6133 84.6081C51.5292 84.7226 51.4526 84.8219 51.3838 84.9211C51.1695 85.2188 51.0165 85.4173 50.9706 85.5012C51.1466 85.3409 51.6439 84.8524 52.3785 84.2265C52.478 84.1425 52.5698 84.0433 52.6846 83.9517C52.8224 83.8143 52.9677 83.6998 53.1208 83.5624C53.1361 83.5318 53.1514 83.5166 53.1744 83.5166C53.381 83.3334 53.6182 83.1349 53.8477 82.9364C54.3681 82.4861 54.919 82.0128 55.5082 81.5472C55.7837 81.3181 56.0898 81.0662 56.3959 80.8372C57.0157 80.3334 57.6585 79.8449 58.2936 79.3945C58.5997 79.1655 58.9211 78.9289 59.2501 78.7152C59.5638 78.4862 59.8776 78.2724 60.1913 78.0892C60.5204 77.8755 60.8417 77.6694 61.1478 77.4938C61.3468 77.3793 61.5534 77.2648 61.7523 77.1656C61.9972 77.0206 62.2497 76.8908 62.4946 76.7687C67.3001 74.4558 68.731 75.5244 69.0907 76.2343C69.435 76.9442 71.9449 80.6769 73.1845 85.5623C72.8402 89.7148 74.7915 94.7376 77.1177 100.264C79.4363 105.768 77.2861 111.294 75.8704 113.058C74.4471 114.851 67.6444 115.027 66.7721 106.31L66.7874 106.325ZM58.1865 154.255C58.0487 154.27 57.911 154.278 57.7656 154.285C57.5207 154.316 57.2682 154.316 57.0233 154.331C56.9392 154.331 56.8474 154.331 56.7632 154.339H56.679C56.2658 154.354 55.8602 154.362 55.447 154.362C54.8119 154.362 54.1844 154.346 53.5723 154.316C53.0137 154.293 52.4704 154.247 51.9424 154.194C51.2843 154.133 50.6339 154.049 50.0064 153.95C49.7309 153.904 49.4631 153.866 49.1953 153.812C48.9274 153.766 48.6596 153.713 48.3995 153.659C45.2851 153.003 42.4997 151.972 40.0281 150.721C39.6914 150.553 39.3547 150.385 39.0333 150.194C37.3728 149.293 35.85 148.286 34.4956 147.247C34.1742 147.003 33.8528 146.744 33.5544 146.499C33.5468 146.499 33.5468 146.492 33.5468 146.492C33.2407 146.247 32.9346 145.988 32.6515 145.736C27.2185 141.019 24.6168 136.034 24.3566 135.538C24.3566 135.53 24.349 135.523 24.349 135.523C24.3566 135.523 24.3643 135.53 24.3719 135.546C24.3872 135.553 24.4025 135.568 24.4178 135.591C24.4408 135.607 24.4637 135.629 24.4867 135.66C24.5097 135.683 24.5403 135.706 24.5709 135.744C24.6321 135.805 24.7086 135.874 24.8004 135.965C24.8387 136.004 24.8846 136.049 24.9382 136.103C25.0377 136.194 25.1448 136.294 25.2672 136.416C25.5121 136.645 25.8029 136.92 26.1319 137.217C26.2161 137.286 26.3002 137.362 26.3921 137.446C26.8359 137.843 27.3409 138.278 27.9072 138.759C28.0143 138.851 28.1291 138.942 28.2515 139.042C28.726 139.431 29.2233 139.835 29.7666 140.263C30.0345 140.469 30.3176 140.69 30.6007 140.904H30.6084C30.8915 141.118 31.1899 141.339 31.4884 141.561C32.4525 142.263 33.5085 142.98 34.6181 143.683C34.8935 143.866 35.1843 144.041 35.4674 144.217C37.8013 145.637 40.3954 146.973 43.1425 148.003C44.8259 148.629 46.5783 149.141 48.3612 149.484C51.246 150.034 54.215 150.133 57.1764 149.56C63.7113 148.293 68.5168 145.957 72.075 143.171C73.0085 142.431 73.8656 141.667 74.6384 140.889C77.4161 138.057 79.1914 134.958 80.3775 132.11C80.4846 131.843 80.5918 131.561 80.6912 131.301C80.829 130.943 80.9591 130.599 81.0815 130.263C81.181 129.966 81.2804 129.66 81.3723 129.378C81.4641 129.088 81.5483 128.798 81.6324 128.523C81.709 128.24 81.7855 127.966 81.862 127.698C81.9309 127.439 81.9997 127.172 82.061 126.92C82.0916 126.798 82.1222 126.676 82.1528 126.546C82.2752 126.05 82.3747 125.599 82.4742 125.172C82.4971 125.065 82.5201 124.966 82.543 124.866C82.6272 124.454 82.7114 124.095 82.7879 123.767C82.8874 123.355 82.9869 122.966 83.0863 122.584C83.2164 122.08 83.3465 121.607 83.4919 121.157C83.5608 120.935 83.6296 120.714 83.6985 120.508C83.8362 120.088 83.974 119.706 84.127 119.348C84.1959 119.172 84.2724 119.004 84.3489 118.836C84.4637 118.599 84.5785 118.37 84.7086 118.172C84.8234 117.966 84.9458 117.783 85.0835 117.622C85.8105 116.699 86.6752 116.439 87.7847 116.989C88.3586 117.271 88.9249 117.722 89.3457 118.424C89.9273 119.386 90.2257 120.844 89.9273 123.05C89.9043 123.187 89.889 123.317 89.8661 123.47C89.7054 124.439 89.4299 125.546 89.0167 126.805C88.8101 127.447 88.5576 128.134 88.2744 128.859C88.1291 129.225 87.976 129.591 87.8077 129.981C87.6393 130.37 87.4786 130.759 87.2873 131.172C86.3691 133.21 85.1754 135.523 83.6602 138.171C82.8644 139.568 82.015 140.858 81.0968 142.034C80.7678 142.492 80.4081 142.935 80.0408 143.362C79.8954 143.545 79.7424 143.721 79.5817 143.896C79.5281 143.95 79.4822 144.003 79.4363 144.057C79.3062 144.202 79.1761 144.347 79.0307 144.492C78.9466 144.591 78.8547 144.683 78.7629 144.774C78.3191 145.255 77.86 145.706 77.3855 146.133C77.1789 146.331 76.9647 146.522 76.7581 146.698C76.5668 146.866 76.3678 147.026 76.1765 147.194C76.1459 147.217 76.1229 147.232 76.1 147.255C75.9622 147.37 75.8245 147.484 75.6791 147.583C75.5414 147.698 75.396 147.812 75.2506 147.919C74.9522 148.148 74.6461 148.377 74.34 148.583C74.3324 148.591 74.3247 148.599 74.3171 148.606C74.1411 148.736 73.9498 148.858 73.7738 148.98C73.5748 149.118 73.3682 149.247 73.1692 149.377C72.8632 149.583 72.5494 149.782 72.2433 149.965C72.0138 150.095 71.7689 150.232 71.5317 150.362C71.4858 150.385 71.4475 150.408 71.4016 150.431C71.348 150.469 71.2868 150.499 71.2256 150.53C71.1644 150.56 71.1032 150.591 71.042 150.629C71.0113 150.644 70.9731 150.66 70.9425 150.675C70.7894 150.766 70.6287 150.85 70.4681 150.919C70.3609 150.98 70.2538 151.026 70.1467 151.072C70.1237 151.087 70.1008 151.095 70.0778 151.11C69.9477 151.186 69.8023 151.255 69.6569 151.308C69.3968 151.431 69.1366 151.545 68.8764 151.652C68.4632 151.835 68.0577 151.995 67.6444 152.156C67.4608 152.232 67.2542 152.308 67.0629 152.369C66.8257 152.461 66.5731 152.545 66.3359 152.621C66.2288 152.659 66.1217 152.698 66.0069 152.728C65.9151 152.759 65.8232 152.789 65.7314 152.82C65.6932 152.827 65.6626 152.843 65.6243 152.85C65.4177 152.919 65.2187 152.98 65.0121 153.041C64.6142 153.156 64.224 153.255 63.8184 153.346C63.6118 153.4 63.3975 153.453 63.1909 153.492C62.8772 153.568 62.5558 153.637 62.2421 153.69C62.0125 153.736 61.7829 153.782 61.5534 153.82C61.2856 153.873 61.0101 153.911 60.7499 153.95C60.505 153.988 60.2602 154.026 60.023 154.056C59.7169 154.095 59.3878 154.133 59.0818 154.163C59.0052 154.171 58.9364 154.179 58.8675 154.186C58.6303 154.209 58.3931 154.224 58.1559 154.24L58.1865 154.255ZM78.5104 79.7991C78.5104 79.7991 79.9872 75.8908 82.4895 75.8908C84.9917 75.8908 86.591 76.4252 87.4786 77.845C88.3739 79.2648 90.1492 81.6617 87.4786 82.0586C84.8081 82.4784 81.6018 81.2189 80.8825 81.0357C80.1709 80.8754 78.518 79.7991 78.518 79.7991H78.5104ZM92.8351 65.5782C95.5975 64.3187 98.0308 63.7233 100.189 63.5706C100.189 63.5706 100.258 63.5706 100.349 63.5553C105.79 63.2271 109.471 65.6392 112.271 67.1659C116.189 69.2956 115.654 79.7991 115.654 79.7991C115.654 79.7991 112.807 76.0588 104.596 76.4252C102.943 76.4862 101.581 76.7 100.449 76.9824C95.9418 78.1274 95.1537 80.509 95.1537 80.509C95.1537 80.509 96.9443 79.9747 100.77 79.8296C101.918 79.7609 103.257 79.7457 104.788 79.7991C111.384 79.9747 112.095 86.7455 112.095 86.7455C112.095 86.7455 107.267 84.9516 104.964 84.7913C104.221 84.7226 103.158 85.0661 102.079 85.5699V85.5852C99.7602 86.6081 97.2886 88.3332 97.2886 88.3332L97.4493 89.0584C97.5335 89.4019 99.6225 89.1881 102.132 88.9286C104.673 88.6614 107.619 88.3332 109.409 88.5088C112.983 88.8752 112.623 90.1118 113.519 92.7911C114.184 94.7605 117.513 103.47 117.199 102.646C116.067 100.272 113.052 95.8521 106.203 95.4551C105.606 95.4246 105.01 95.4246 104.451 95.4551C104.03 95.4857 103.625 95.5391 103.219 95.6002C103.119 95.6002 103.02 95.6231 102.905 95.6383C102.775 95.6689 102.66 95.6841 102.523 95.6994C102.423 95.7376 102.324 95.7528 102.232 95.7681C102.232 95.7681 102.209 95.7834 102.194 95.7834C102.002 95.8292 101.796 95.8826 101.597 95.9284C100.801 96.1269 100.059 96.4093 99.347 96.7223C99.0027 96.8673 98.6813 97.02 98.3522 97.1879C98.0921 97.3177 97.8395 97.4703 97.5947 97.6383C97.3957 97.7375 97.2044 97.852 97.0284 97.9665C96.4775 98.31 95.9648 98.6917 95.4827 99.0733C95.1919 99.3252 94.8858 99.5771 94.6104 99.8214C94.3272 100.066 94.0747 100.318 93.8299 100.562C93.6998 100.676 93.585 100.791 93.4626 100.928C93.1871 101.211 92.9499 101.493 92.7356 101.737C92.6514 101.821 92.5826 101.905 92.5214 101.989C91.8709 102.76 91.5113 103.325 91.4195 103.44C91.5189 103.379 91.9398 103.111 92.6208 102.73C92.7203 102.661 92.8121 102.615 92.9116 102.569C93.761 102.081 94.9241 101.501 96.2632 100.928C96.4316 100.867 96.5923 100.783 96.7836 100.722C98.3675 100.073 100.227 99.4474 102.155 99.1191C102.523 99.0504 102.898 99.0046 103.265 98.9512C103.418 98.9359 103.579 98.9207 103.732 98.9054C104.313 98.8367 104.918 98.8214 105.515 98.8367C112.294 99.0199 113.725 105.783 115.325 109.523C114.437 108.63 108.713 104.546 103.54 105.317C98.3675 106.081 95.521 110.409 96.2326 112.363C99.1634 110.203 101.497 109.226 103.471 108.959C106.196 108.554 108.262 109.485 110.32 110.409C113.901 112.012 113.35 118.233 113.35 118.233C113.35 118.233 111.215 115.569 106.387 115.035C105.629 114.958 104.918 114.974 104.267 115.073C100.77 115.538 98.7425 118.126 98.0155 119.431C97.7018 119.981 97.6482 120.393 97.7248 120.706C97.8549 121.256 98.3675 121.439 98.3675 121.439L101.053 119.431C101.283 119.37 101.52 119.286 101.75 119.241C101.964 119.172 102.186 119.126 102.4 119.073C102.836 118.973 103.227 118.912 103.609 118.859C103.762 118.828 103.908 118.813 104.045 118.813C104.076 118.798 104.091 118.798 104.13 118.798H104.275C106.433 118.683 107.826 119.393 108.874 120.302C108.989 120.401 109.103 120.515 109.218 120.63C109.333 120.729 109.448 120.844 109.547 120.958C109.754 121.187 109.96 121.401 110.144 121.63C110.527 122.08 110.871 122.508 111.223 122.859C111.95 123.584 112.317 124.828 112.501 126.073C112.532 126.317 112.57 126.553 112.585 126.782C112.646 127.447 112.685 128.057 112.685 128.569C112.685 129.317 112.646 129.813 112.646 129.813C112.646 129.813 112.616 129.752 112.532 129.637C112.47 129.569 112.417 129.5 112.34 129.408C112.187 129.225 111.965 128.988 111.659 128.744C111.024 128.195 110.014 127.53 108.491 126.95C108.315 126.92 108.109 126.889 107.933 126.874C107.734 126.859 107.542 126.821 107.366 126.821C106.219 126.706 105.193 126.76 104.283 126.889C104.007 126.92 103.732 126.973 103.487 127.019C103.288 127.05 103.104 127.103 102.921 127.149C102.821 127.164 102.729 127.202 102.63 127.233C102.461 127.279 102.316 127.332 102.148 127.378C101.979 127.431 101.834 127.492 101.681 127.546C101.497 127.622 101.306 127.691 101.145 127.775C101.061 127.805 100.985 127.836 100.9 127.889C100.671 128.004 100.449 128.118 100.265 128.233H100.25C100.12 128.309 100.02 128.393 99.898 128.462C99.722 128.576 99.5689 128.691 99.4312 128.782C99.0792 129.065 98.9185 129.248 98.9185 129.248L99.1634 130.752L99.4388 132.454L101.046 131.21C102.438 130.782 103.701 130.653 104.826 130.744C105.071 130.767 105.308 130.798 105.553 130.828C105.683 130.843 105.813 130.882 105.935 130.897C106.088 130.927 106.234 130.958 106.387 131.011C106.67 131.072 106.923 131.156 107.167 131.256C107.366 131.317 107.55 131.385 107.718 131.469C107.933 131.546 108.132 131.645 108.315 131.744C108.514 131.843 108.698 131.943 108.866 132.042C109.042 132.156 109.211 132.256 109.364 132.37C109.524 132.462 109.677 132.576 109.83 132.691C109.976 132.79 110.106 132.904 110.251 133.019C110.381 133.118 110.496 133.233 110.619 133.347C110.733 133.446 110.848 133.546 110.948 133.66C111.139 133.859 111.315 134.042 111.445 134.187C111.575 134.339 111.69 134.469 111.759 134.576C112.47 135.446 112.646 139.553 111.039 140.79C110.993 140.675 110.925 140.584 110.848 140.469C110.795 140.385 110.718 140.316 110.634 140.24C110.58 140.187 110.534 140.141 110.465 140.087L110.42 140.042C110.42 140.042 110.374 140.011 110.335 139.988C110.175 139.874 110.006 139.759 109.807 139.645C109.708 139.584 109.608 139.53 109.509 139.484C109.409 139.416 109.31 139.37 109.195 139.324C109.05 139.24 108.889 139.171 108.713 139.095C108.667 139.072 108.598 139.042 108.552 139.026C108.254 138.897 107.917 138.782 107.588 138.66C107.496 138.629 107.397 138.591 107.298 138.561C107.037 138.477 106.747 138.4 106.486 138.332C106.119 138.232 105.759 138.133 105.384 138.072C105.002 137.973 104.642 137.904 104.29 137.843C103.196 137.645 102.171 137.561 101.421 137.614C100.181 137.69 99.6837 138.042 99.6837 138.454C99.6837 138.919 100.38 139.461 101.421 139.744C102.102 139.858 102.714 139.988 103.295 140.164C103.579 140.24 103.846 140.324 104.107 140.423C104.374 140.507 104.627 140.606 104.857 140.698C105.002 140.767 105.17 140.835 105.308 140.912C105.453 140.98 105.583 141.064 105.721 141.125C105.851 141.209 105.989 141.271 106.127 141.354C106.257 141.423 106.372 141.5 106.494 141.599C106.724 141.751 106.93 141.912 107.122 142.103C107.221 142.164 107.32 142.248 107.405 142.347C107.68 142.606 107.917 142.874 108.116 143.156C108.246 143.316 108.361 143.499 108.461 143.683C108.53 143.782 108.575 143.866 108.606 143.95C108.705 144.125 108.79 144.293 108.836 144.461C108.866 144.561 108.92 144.644 108.935 144.721C108.989 144.805 109.004 144.889 109.019 144.973C109.05 145.049 109.08 145.133 109.096 145.202C109.149 145.362 109.18 145.507 109.195 145.667C109.233 145.812 109.264 145.942 109.264 146.08C109.348 146.759 109.279 147.209 109.279 147.209L104.29 146.774L103.028 146.675C103.028 146.675 102.132 147.385 101.78 149.179C102.048 149.24 102.331 149.308 102.591 149.392C102.859 149.469 103.112 149.568 103.372 149.667C103.387 149.667 103.403 149.682 103.426 149.682C103.686 149.797 103.954 149.896 104.198 150.026C104.466 150.14 104.703 150.27 104.948 150.415C104.964 150.431 104.994 150.446 105.025 150.461C105.277 150.591 105.53 150.736 105.759 150.881C105.775 150.896 105.805 150.911 105.836 150.927C106.119 151.11 106.372 151.255 106.586 151.408C106.616 151.438 106.647 151.461 106.67 151.476C106.846 151.606 106.999 151.705 107.137 151.805C107.198 151.85 107.267 151.881 107.313 151.934C107.382 151.98 107.428 152.011 107.458 152.049C107.596 152.148 107.657 152.194 107.657 152.194L103.915 156.102L100.801 155.255L97.3192 154.331L95.7123 156.629L99.7296 158.751L99.7449 158.766L102.844 160.384L100.801 164.369L98.0155 161.873H98.0002L97.4034 161.323L94.6027 158.789H94.5798L93.5391 157.85C93.5391 157.85 97.8549 146.85 97.8549 138.484V138.439C97.8549 138.003 97.8549 137.584 97.8319 137.164C97.8319 136.744 97.8319 136.339 97.8166 135.935C97.8013 135.309 97.786 134.698 97.7554 134.103C97.7401 133.553 97.7018 133.019 97.6712 132.515C97.6559 132.462 97.6559 132.401 97.6559 132.347C97.6406 131.881 97.587 131.423 97.5564 130.981C97.5258 130.431 97.4723 129.897 97.411 129.393C97.082 126.355 96.5616 123.706 95.8883 121.187C95.7199 120.592 95.5439 119.996 95.3679 119.393C93.3937 115.424 93.2177 109.478 92.682 107.875C91.2588 108.768 91.2588 116.584 91.2588 116.584C91.2588 116.584 88.2209 113.21 84.4714 113.76C85.183 107.34 91.0675 96.4856 91.2588 91.3331C90.1722 93.814 86.6139 96.8368 86.6139 96.8368L86.4456 91.4934C86.4456 91.4934 86.0783 92.7529 84.8387 96.8368C84.6627 92.043 83.0481 92.3941 81.8084 86.7531C80.5458 81.1349 83.7368 83.4479 83.7368 83.4479C83.7368 83.4479 84.6627 86.173 86.6216 86.7073C88.5729 87.234 90.0191 84.2036 90.0191 84.2036C91.9781 86.8829 92.6897 85.5318 92.6897 85.5318C93.2253 83.4479 89.2922 76.7381 89.2922 76.7381L90.7308 74.929C85.9023 74.9138 85.3743 73.3566 83.7674 73.3566C82.1604 73.3566 81.2575 73.181 77.6993 76.387C76.452 72.4635 81.9768 68.5476 81.0968 66.7766C77.5156 59.8226 72.7101 58.9372 62.7088 58.4028C53.029 57.8914 37.1356 65.7461 36.1867 66.2117C36.9596 65.5934 48.5142 56.6471 55.5771 52.1664C62.8848 47.5482 67.6904 48.4489 70.3839 47.8993C73.0545 47.3726 85.007 50.4031 85.007 50.4031L81.8008 53.4259C81.8008 53.4259 79.2986 51.7542 74.0569 51.2656C73.8503 51.2427 73.7891 51.5328 73.988 51.6015C77.9135 52.9144 81.7549 56.7387 84.4714 61.2119C84.8387 58.1433 87.6929 53.0595 100.525 52.0061C113.366 50.9298 118.546 59.2959 120.964 67.1201C119.441 64.7996 116.931 61.96 110.335 60.5402C106.953 59.8074 103.617 59.7768 100.525 60.1356C97.5411 60.4638 94.7711 61.1737 92.3301 61.96C87.3256 63.563 85.8947 70.5093 85.8947 70.5093L92.8657 65.5324L92.8351 65.5782ZM121.546 78.8068L122.969 76.9519C122.969 76.9519 124.056 73.9291 126.719 75.3489C129.404 76.7763 130.996 79.4556 128.325 80.1655C125.632 80.8754 124.576 81.2265 122.961 82.6464C121.362 84.0891 120.115 80.6617 121.538 78.8144L121.546 78.8068ZM124.132 95.4628C124.132 95.4628 123.16 94.2185 122.969 90.4858C122.808 86.7531 124.867 85.0967 125.311 85.6768C127.644 88.6996 124.124 95.4628 124.124 95.4628H124.132ZM171.338 147.675C171.3 147.705 171.269 147.721 171.238 147.751C170.833 148.079 170.443 148.415 170.037 148.713C169.608 149.034 169.18 149.354 168.744 149.652C168.468 149.843 168.177 150.049 167.902 150.232C166.379 151.232 164.902 152.049 163.479 152.659C163.181 152.789 162.898 152.904 162.614 153.026C162.163 153.186 161.727 153.354 161.275 153.507C160.594 153.721 159.913 153.904 159.232 154.041C158.551 154.186 157.87 154.301 157.212 154.362C156.233 154.476 155.268 154.499 154.343 154.446C154.044 154.446 153.746 154.415 153.447 154.385C153.156 154.362 152.866 154.331 152.59 154.27C152.376 154.232 152.154 154.217 151.94 154.171C151.879 154.171 151.825 154.156 151.779 154.133C151.71 154.133 151.649 154.117 151.58 154.102C151.381 154.072 151.182 154.018 150.999 153.988C150.999 153.988 150.988 153.983 150.968 153.972C150.654 153.888 150.318 153.812 150.027 153.713C149.759 153.659 149.522 153.583 149.277 153.484C148.91 153.385 148.565 153.27 148.213 153.117C147.777 152.95 147.333 152.774 146.905 152.568C146.384 152.339 145.879 152.087 145.397 151.82C144.663 151.423 143.966 150.995 143.293 150.568C143.293 150.568 143.28 150.555 143.255 150.53C142.872 150.286 142.497 150.034 142.13 149.774C142.076 149.736 142.015 149.69 141.961 149.66C141.648 149.431 141.349 149.209 141.051 148.98C140.653 148.683 140.255 148.37 139.872 148.057C139.597 147.828 139.321 147.606 139.061 147.377C138.625 147.011 138.22 146.652 137.814 146.301C137.447 145.973 137.102 145.652 136.773 145.339L136.727 145.293C136.414 145.018 136.1 144.713 135.817 144.438C135.656 144.286 135.503 144.141 135.35 144.003C135.036 143.706 134.753 143.438 134.478 143.179C134.325 143.041 134.195 142.912 134.057 142.79C131.57 140.53 129.282 137.286 127.377 133.889L127.361 133.874C127.048 133.309 126.734 132.729 126.451 132.179C126.16 131.614 125.869 131.034 125.609 130.477C125.479 130.217 125.349 129.927 125.226 129.668C124.959 129.088 124.706 128.508 124.476 127.95C124.285 127.469 124.094 126.996 123.91 126.531C123.78 126.202 123.665 125.866 123.543 125.553C123.252 124.714 122.977 123.92 122.785 123.195C122.686 122.867 122.602 122.531 122.54 122.233C122.54 122.233 122.533 122.223 122.518 122.202C122.441 121.836 122.357 121.492 122.311 121.164C122.257 120.989 122.227 120.798 122.211 120.615C122.196 120.538 122.173 120.454 122.173 120.37C122.143 120.21 122.143 120.042 122.127 119.889C122.112 119.744 122.112 119.599 122.112 119.454C122.112 115.142 126.145 116.714 126.145 116.714C126.772 124.981 131.876 138.141 144.578 146.545C145.045 146.835 145.504 147.141 145.971 147.4C146.201 147.545 146.438 147.683 146.667 147.805C146.897 147.934 147.134 148.049 147.341 148.171C147.961 148.476 148.558 148.766 149.154 149.026C149.453 149.156 149.751 149.27 150.05 149.37C150.195 149.423 150.34 149.484 150.501 149.537C150.601 149.568 150.692 149.614 150.807 149.652C150.861 149.667 150.891 149.667 150.945 149.682V149.698C151.175 149.782 151.412 149.843 151.641 149.911C151.703 149.942 151.771 149.957 151.817 149.957V149.973C152.1 150.057 152.399 150.14 152.682 150.202C152.957 150.286 153.264 150.339 153.539 150.4C154.121 150.53 154.687 150.629 155.23 150.698C155.506 150.728 155.773 150.774 156.057 150.797C156.317 150.827 156.6 150.843 156.868 150.858C158.452 150.973 159.959 150.911 161.39 150.728C161.842 150.682 162.262 150.614 162.699 150.545L162.943 150.499C163.326 150.415 163.693 150.339 164.061 150.255C164.489 150.156 164.902 150.057 165.3 149.942C165.706 149.828 166.081 149.713 166.448 149.576C166.815 149.461 167.167 149.331 167.489 149.209C167.879 149.064 168.239 148.912 168.591 148.744C169.188 148.499 169.723 148.225 170.198 147.98C171.46 147.339 172.302 146.759 172.646 146.53C172.195 146.927 171.766 147.301 171.338 147.675Z" fill="#220D0F"/>
<path d="M75.8857 113.073C74.4624 114.859 67.6597 115.042 66.7874 106.325C65.8921 97.5924 69.8176 89.2263 69.2743 87.6233C68.7463 89.4095 61.2473 102.409 60.1913 102.753C59.1124 103.119 56.2658 98.1191 55.7301 95.4627C55.7301 91.0125 55.1868 90.4858 53.2279 89.7759C49.1187 89.4095 39.6684 81.0433 36.1025 77.5015C32.5367 73.929 33.432 73.2191 41.987 70.1887C45.8666 68.8147 50.1594 67.9598 54.1538 67.6392C54.4063 68.8605 56.128 78.0587 52.0801 83.9593C51.9347 84.1883 51.7817 84.3867 51.6133 84.6005C51.5291 84.715 51.445 84.8295 51.3838 84.9134C51.1695 85.2111 51.0164 85.4096 50.9705 85.4936C51.1542 85.3256 51.6516 84.8524 52.3785 84.2188C52.478 84.1348 52.5775 84.0356 52.6923 83.9364C52.8223 83.8066 52.9754 83.6845 53.1208 83.5547C53.1361 83.5242 53.1514 83.5013 53.1743 83.5013C53.3886 83.3181 53.6182 83.1196 53.8554 82.9211C54.3681 82.4784 54.919 81.9975 55.5159 81.5319C55.799 81.3029 56.0974 81.051 56.4112 80.822C57.0233 80.3258 57.6738 79.8296 58.3012 79.3869C58.615 79.1579 58.9287 78.9213 59.2654 78.7075C59.5791 78.4785 59.8929 78.2648 60.2066 78.0816C60.5356 77.8679 60.8494 77.6694 61.1708 77.4862C61.3697 77.3717 61.5687 77.2572 61.7676 77.158C62.0125 77.0053 62.265 76.8755 62.5099 76.761C67.3154 74.4481 68.7463 75.5244 69.106 76.2343C69.4503 76.9442 71.9602 80.6846 73.1998 85.5623C72.8555 89.7148 74.8068 94.7376 77.1254 100.264C79.4439 105.768 77.2937 111.294 75.8857 113.065V113.073Z" fill="white"/>
<path d="M112.095 86.7455C112.095 86.7455 107.275 84.9592 104.964 84.7913C104.214 84.7226 103.158 85.0737 102.079 85.5699C102.408 83.9135 100.87 80.0434 100.77 79.8296C101.91 79.7609 103.257 79.7457 104.78 79.7991C111.376 79.9823 112.088 86.7455 112.088 86.7455H112.095Z" fill="#D8C7B8"/>
<path d="M120.926 67.1659C119.403 64.853 116.901 62.0057 110.297 60.5859C106.915 59.8608 103.586 59.8226 100.479 60.189C98.4899 56.7998 100.479 52.0518 100.479 52.0518C113.327 50.9755 118.5 59.3417 120.918 67.1659H120.926Z" fill="#D8C7B8"/>
<path d="M134.041 47.9451C134.041 47.9451 127.43 52.2121 125.999 53.9983C124.576 55.7845 120.826 51.319 120.826 51.319C126.343 48.3115 134.041 47.9451 134.041 47.9451Z" fill="#D8C7B8"/>
<path d="M102.806 160.415L100.296 165.316L97.9772 161.903C100.388 160.758 99.8137 158.98 99.6989 158.797L102.798 160.415H102.806Z" fill="#D8C7B8"/>
<path d="M107.634 152.232L103.885 156.133L100.77 155.293C102.461 153.904 103.341 149.721 103.341 149.721V149.705C103.341 149.705 103.372 149.721 103.387 149.721C103.655 149.835 103.915 149.934 104.168 150.064C104.435 150.179 104.665 150.316 104.91 150.446C104.925 150.461 104.963 150.476 104.994 150.492C105.247 150.621 105.491 150.774 105.721 150.904C105.736 150.919 105.767 150.934 105.805 150.957C106.088 151.14 106.333 151.285 106.555 151.438C106.586 151.469 106.624 151.492 106.639 151.507C106.823 151.637 106.968 151.736 107.106 151.835C107.175 151.888 107.236 151.919 107.29 151.965C107.359 152.011 107.404 152.049 107.435 152.079C107.565 152.179 107.634 152.224 107.634 152.224V152.232Z" fill="#D8C7B8"/>
<path d="M109.241 147.232L104.252 146.805C106.754 144.423 104.818 140.721 104.818 140.721C104.964 140.805 105.117 140.866 105.262 140.935C105.407 141.003 105.545 141.08 105.675 141.148C105.805 141.232 105.943 141.293 106.073 141.377C106.203 141.446 106.318 141.53 106.44 141.629C106.67 141.774 106.869 141.957 107.068 142.125C107.167 142.194 107.267 142.278 107.351 142.377C107.634 142.644 107.864 142.904 108.063 143.186C108.193 143.354 108.315 143.538 108.407 143.713C108.476 143.812 108.522 143.896 108.56 143.98C108.644 144.148 108.728 144.331 108.79 144.492C108.82 144.591 108.874 144.675 108.889 144.759C108.92 144.843 108.958 144.927 108.973 145.003C109.004 145.087 109.042 145.171 109.057 145.232C109.111 145.4 109.142 145.545 109.157 145.698C109.172 145.843 109.211 145.98 109.226 146.11C109.31 146.789 109.241 147.232 109.241 147.232Z" fill="#D8C7B8"/>
<path d="M111.016 140.835C110.963 140.721 110.902 140.622 110.817 140.507C110.772 140.423 110.687 140.354 110.603 140.278C110.55 140.232 110.504 140.179 110.435 140.125C110.42 140.11 110.404 140.095 110.389 140.08C110.358 140.064 110.335 140.049 110.305 140.026C110.136 139.912 109.976 139.797 109.777 139.683C109.677 139.614 109.578 139.553 109.478 139.515C109.379 139.446 109.279 139.4 109.165 139.347C109.019 139.263 108.851 139.194 108.683 139.118C108.637 139.103 108.568 139.072 108.514 139.049C108.216 138.919 107.887 138.797 107.55 138.683C107.451 138.652 107.351 138.614 107.252 138.584C106.984 138.5 106.701 138.416 106.44 138.355C106.073 138.255 105.713 138.156 105.346 138.087C104.964 137.988 104.596 137.919 104.252 137.858C105.675 133.942 104.749 130.965 104.749 130.965C104.749 130.965 104.78 130.897 104.818 130.767C105.063 130.782 105.3 130.82 105.545 130.851C105.675 130.866 105.813 130.904 105.928 130.92C106.081 130.95 106.226 130.988 106.372 131.034C106.655 131.103 106.9 131.187 107.152 131.286C107.351 131.355 107.535 131.416 107.703 131.5C107.917 131.584 108.116 131.683 108.3 131.782C108.499 131.881 108.683 131.981 108.843 132.08C109.027 132.194 109.188 132.294 109.341 132.408C109.509 132.507 109.654 132.622 109.807 132.736C109.953 132.836 110.09 132.95 110.221 133.065C110.351 133.164 110.465 133.278 110.588 133.393C110.703 133.492 110.817 133.591 110.917 133.706C111.116 133.904 111.284 134.087 111.414 134.233C111.544 134.385 111.659 134.515 111.728 134.614C112.44 135.492 112.623 139.591 111.016 140.835Z" fill="#D8C7B8"/>
<path d="M112.654 128.569C112.654 129.309 112.623 129.805 112.623 129.805C112.623 129.805 112.593 129.736 112.508 129.622C112.44 129.553 112.394 129.492 112.31 129.393C112.156 129.21 111.942 128.981 111.628 128.729C111.001 128.187 109.983 127.523 108.461 126.943C108.277 126.912 108.078 126.874 107.894 126.859C107.695 126.843 107.512 126.805 107.328 126.805C106.188 126.691 105.155 126.737 104.244 126.874V126.859C103.234 123.798 104.244 118.79 104.244 118.79C106.402 118.676 107.795 119.386 108.835 120.294C108.95 120.393 109.065 120.508 109.18 120.622C109.295 120.721 109.409 120.836 109.509 120.95C109.723 121.179 109.922 121.393 110.106 121.63C110.488 122.073 110.833 122.508 111.185 122.851C111.912 123.576 112.279 124.821 112.463 126.057C112.493 126.309 112.531 126.538 112.547 126.767C112.616 127.431 112.646 128.042 112.646 128.553L112.654 128.569Z" fill="#D8C7B8"/>
<path d="M113.335 118.233C113.335 118.233 111.2 115.569 106.371 115.042C105.606 114.958 104.895 114.974 104.252 115.073V115.058C103.64 114.035 103.471 111.271 103.456 108.959C106.173 108.562 108.246 109.485 110.305 110.417C113.886 112.02 113.335 118.241 113.335 118.241V118.233Z" fill="#D8C7B8"/>
<path d="M115.309 109.516C114.414 108.623 108.698 104.539 103.525 105.317L102.148 99.1191C102.515 99.0504 102.897 99.0046 103.257 98.9512C103.403 98.9359 103.571 98.9206 103.724 98.8977C104.305 98.829 104.902 98.8138 105.499 98.829C112.279 99.0122 113.702 105.775 115.317 109.516H115.309Z" fill="#D8C7B8"/>
<path d="M117.199 102.653C115.73 100.256 113.052 95.8597 106.211 95.4627C105.614 95.4322 105.017 95.4322 104.451 95.4627C104.038 95.4933 103.624 95.5467 103.227 95.6078C103.127 95.6078 103.028 95.623 102.913 95.6383C102.783 95.6688 102.66 95.6841 102.53 95.707C102.431 95.7375 102.331 95.7604 102.232 95.7757C102.201 95.6765 102.163 95.562 102.132 95.4627C101.007 91.9896 102.132 88.9286 102.132 88.9286C104.665 88.6614 107.619 88.3332 109.409 88.5164C112.991 88.8828 112.623 90.1194 113.519 92.7987C114.184 94.7681 116.327 99.7909 117.199 102.653Z" fill="#D8C7B8"/>
<path d="M172.639 146.522C172.195 146.919 171.759 147.301 171.33 147.66C171.299 147.69 171.261 147.705 171.231 147.744C170.833 148.072 170.435 148.408 170.037 148.705C169.608 149.034 169.172 149.347 168.744 149.644C168.461 149.843 168.177 150.041 167.902 150.224C166.379 151.232 164.902 152.041 163.479 152.652C163.181 152.782 162.897 152.904 162.614 153.018C162.171 153.186 161.719 153.347 161.275 153.499C160.594 153.713 159.913 153.896 159.24 154.026C158.559 154.171 157.878 154.293 157.22 154.354C156.24 154.453 155.284 154.484 154.35 154.438C154.052 154.423 153.753 154.385 153.455 154.369C153.172 154.339 152.873 154.301 152.59 154.255C152.376 154.224 152.162 154.201 151.947 154.156C151.878 154.156 151.833 154.14 151.779 154.125C151.71 154.125 151.649 154.11 151.58 154.095C151.381 154.064 151.182 154.011 150.999 153.98C150.999 153.98 150.988 153.975 150.968 153.965C150.654 153.881 150.325 153.797 150.027 153.698C149.759 153.652 149.529 153.568 149.277 153.469C148.909 153.369 148.565 153.255 148.213 153.102C147.785 152.934 147.333 152.751 146.905 152.56C146.392 152.331 145.879 152.079 145.397 151.82C144.67 151.423 143.974 150.995 143.293 150.56L143.262 150.53C142.88 150.278 142.497 150.034 142.137 149.766C142.084 149.736 142.023 149.682 141.969 149.652C141.655 149.423 141.357 149.209 141.058 148.973C140.661 148.675 140.263 148.362 139.88 148.049C139.597 147.82 139.337 147.606 139.069 147.37C138.64 147.003 138.227 146.644 137.829 146.293C137.462 145.965 137.118 145.652 136.789 145.331L136.735 145.286C136.421 145.003 136.108 144.706 135.824 144.423C135.656 144.27 135.511 144.125 135.358 143.996C135.044 143.698 134.761 143.431 134.478 143.171C134.332 143.041 134.195 142.904 134.064 142.79C131.578 140.522 129.29 137.286 127.384 133.889L127.369 133.874C127.055 133.309 126.741 132.736 126.458 132.172C126.16 131.607 125.877 131.034 125.617 130.469C125.486 130.202 125.349 129.927 125.234 129.66C124.966 129.08 124.721 128.5 124.484 127.943C124.285 127.462 124.101 126.981 123.918 126.523C123.788 126.195 123.665 125.859 123.55 125.546C123.252 124.706 122.984 123.912 122.785 123.179C122.686 122.851 122.602 122.515 122.533 122.218C122.533 122.218 122.528 122.208 122.517 122.187C122.433 121.821 122.349 121.477 122.303 121.149C122.25 120.966 122.219 120.783 122.204 120.607C122.188 120.523 122.173 120.439 122.173 120.363C122.143 120.195 122.143 120.035 122.12 119.882C122.104 119.737 122.104 119.584 122.104 119.454C122.104 115.142 126.129 116.706 126.129 116.706C126.757 124.973 131.868 138.141 144.563 146.538C145.03 146.835 145.489 147.133 145.956 147.4C146.185 147.553 146.423 147.683 146.652 147.797C146.882 147.927 147.119 148.049 147.333 148.163C147.945 148.476 148.542 148.759 149.139 149.026C149.437 149.156 149.736 149.27 150.034 149.37C151.228 149.835 152.391 150.179 153.531 150.408C154.113 150.537 154.672 150.637 155.222 150.705C155.506 150.736 155.773 150.789 156.049 150.805C156.317 150.835 156.6 150.858 156.86 150.873C158.452 150.988 159.959 150.919 161.382 150.744C161.826 150.69 162.262 150.629 162.691 150.56L162.943 150.507C163.326 150.423 163.693 150.339 164.053 150.263C164.481 150.163 164.895 150.064 165.293 149.95C165.69 149.835 166.073 149.721 166.433 149.583C166.8 149.469 167.144 149.339 167.481 149.217C167.864 149.064 168.223 148.919 168.575 148.751C169.172 148.507 169.7 148.24 170.182 147.988C171.445 147.347 172.287 146.767 172.639 146.53V146.522Z" fill="#D8C7B8"/>
<path d="M124.132 95.4551C124.132 95.4551 123.153 94.2184 122.969 90.4781C122.801 86.7378 124.859 85.089 125.303 85.6691C127.637 88.6919 124.124 95.4627 124.124 95.4627L124.132 95.4551Z" fill="#D8C7B8"/>
<path d="M128.325 80.1578C125.639 80.8677 124.576 81.2188 122.969 82.6386C121.362 84.0737 120.115 80.654 121.546 78.7991L122.969 76.9442C122.969 76.9442 124.048 73.9213 126.718 75.3412C129.404 76.761 130.996 79.4403 128.325 80.1502V80.1578Z" fill="#D8C7B8"/>
<path d="M115.653 79.7991C115.653 79.7991 112.799 76.0587 104.596 76.4251C102.936 76.4938 101.581 76.7076 100.449 76.99C99.0408 73.6313 100.181 63.5782 100.181 63.5782C100.181 63.5782 100.25 63.5782 100.349 63.5629C105.79 63.2347 109.471 65.6468 112.271 67.1659C116.181 69.2956 115.653 79.7991 115.653 79.7991Z" fill="#D8C7B8"/>
<path d="M66.0757 68.9521C65.9073 69.0361 65.7619 69.1353 65.5783 69.2346C65.41 69.3338 65.2493 69.433 65.0656 69.5628C64.8514 69.7155 64.6218 69.891 64.3693 70.0895C64.0861 70.3032 63.7877 70.5322 63.4893 70.8147C62.5787 71.5933 61.6145 72.5322 60.658 73.5627C60.3596 73.8756 60.0612 74.1886 59.7627 74.5245C59.3495 74.9901 58.9363 75.4481 58.5384 75.9137C58.1711 76.3259 57.8267 76.7229 57.4977 77.1351C56.832 77.9137 56.2045 78.6923 55.6076 79.4175C55.2403 79.8831 54.8807 80.3258 54.544 80.7533C54.4292 80.8983 54.3144 81.051 54.215 81.1808C54.1002 81.3258 54.0007 81.4632 53.9012 81.593C53.1896 82.5013 52.5774 83.3181 52.0953 83.9593C56.1433 78.0587 54.4139 68.8605 54.169 67.6316C58.9746 67.2499 63.3515 67.6621 66.091 68.9369L66.0757 68.9521Z" fill="#D8C7B8"/>
<path d="M14.1105 162.316H25.3284C27.3409 162.316 28.8484 162.56 29.8585 163.056C30.8685 163.545 31.7026 164.255 32.3607 165.163C33.0188 166.079 33.3478 167.193 33.3478 168.506C33.3478 171.17 31.9016 172.941 29.0091 173.834C30.6772 174.208 31.9322 174.957 32.7662 176.071C33.6003 177.185 34.0212 178.399 34.0212 179.712C34.0212 181.506 33.3402 183.063 31.9781 184.368C30.616 185.674 28.3969 186.33 25.3284 186.33H14.1105V162.316ZM19.7348 166.552V171.812H24.0046C25.5656 171.812 26.5528 171.506 26.9583 170.888C27.3639 170.27 27.5628 169.682 27.5628 169.117C27.5628 168.506 27.3945 167.98 27.0578 167.545C26.7211 167.102 26.3538 166.827 25.9559 166.72C25.558 166.606 24.7698 166.552 23.5914 166.552H19.7271H19.7348ZM19.7348 176.086V181.872H24.0658C25.5427 181.872 26.591 181.613 27.1955 181.101C27.8077 180.582 28.1138 179.865 28.1138 178.941C28.1138 178.17 27.823 177.498 27.2338 176.934C26.6446 176.369 25.6728 176.086 24.3107 176.086H19.7348Z" fill="#EAA423"/>
<path d="M49.4631 162.316L57.0004 186.33H50.9399L49.4554 181.384H41.6732L40.1658 186.33H35.2225L42.9358 162.316H49.4631ZM43.02 176.956H48.1239L45.5988 168.529L43.0277 176.956H43.02Z" fill="#EAA423"/>
<path d="M65.2723 176.811V186.33H59.5945V162.316H70.1773C72.1286 162.316 73.6973 162.545 74.8757 162.995C76.0541 163.445 77.0336 164.277 77.8141 165.484C78.5869 166.69 78.9772 168.033 78.9772 169.506C78.9772 172.392 77.5845 174.46 74.7992 175.712L79.245 186.33H73.0162L69.3203 176.811H65.28H65.2723ZM65.2723 166.59V172.712H68.7311C69.8636 172.712 70.6823 172.636 71.195 172.476C71.7077 172.315 72.1592 171.964 72.5648 171.422C72.9627 170.88 73.1616 170.254 73.1616 169.552C73.1616 168.85 72.9627 168.285 72.5648 167.758C72.1669 167.232 71.7307 166.903 71.2563 166.781C70.7895 166.659 69.9018 166.598 68.6086 166.598H65.2723V166.59Z" fill="#EAA423"/>
<path d="M95.1613 162.316L102.699 186.33H96.6382L95.1536 181.384H87.3715L85.864 186.33H80.9208L88.6341 162.316H95.1613ZM88.7182 176.956H93.8222L91.297 168.529L88.7259 176.956H88.7182Z" fill="#EAA423"/>
<path d="M105.293 162.316H116.511C118.523 162.316 120.031 162.56 121.041 163.056C122.051 163.545 122.885 164.255 123.543 165.163C124.201 166.079 124.53 167.193 124.53 168.506C124.53 171.17 123.084 172.941 120.191 173.834C121.859 174.208 123.114 174.957 123.948 176.071C124.783 177.185 125.203 178.399 125.203 179.712C125.203 181.506 124.522 183.063 123.16 184.368C121.798 185.674 119.579 186.33 116.511 186.33H105.293V162.316ZM110.917 166.552V171.812H115.187C116.748 171.812 117.735 171.506 118.141 170.888C118.546 170.27 118.745 169.682 118.745 169.117C118.745 168.506 118.577 167.98 118.24 167.545C117.903 167.102 117.536 166.827 117.138 166.72C116.74 166.606 115.952 166.552 114.774 166.552H110.909H110.917ZM110.917 176.086V181.872H115.248C116.725 181.872 117.773 181.613 118.378 181.101C118.99 180.582 119.296 179.865 119.296 178.941C119.296 178.17 119.005 177.498 118.416 176.934C117.827 176.369 116.855 176.086 115.493 176.086H110.917Z" fill="#EAA423"/>
<path d="M140.645 162.316L148.183 186.33H142.122L140.638 181.384H132.855L131.348 186.33H126.405L134.118 162.316H140.645ZM134.202 176.956H139.306L136.781 168.529L134.21 176.956H134.202Z" fill="#EAA423"/>
<path d="M156.454 176.811V186.33H150.777V162.316H161.359C163.311 162.316 164.879 162.545 166.058 162.995C167.236 163.445 168.216 164.277 168.996 165.484C169.769 166.69 170.159 168.033 170.159 169.506C170.159 172.392 168.767 174.46 165.981 175.712L170.427 186.33H164.198L160.502 176.811H156.462H156.454ZM156.454 166.59V172.712H159.913C161.046 172.712 161.864 172.636 162.377 172.476C162.89 172.315 163.341 171.964 163.747 171.422C164.145 170.88 164.344 170.254 164.344 169.552C164.344 168.85 164.145 168.285 163.747 167.758C163.349 167.232 162.913 166.903 162.438 166.781C161.972 166.659 161.084 166.598 159.791 166.598H156.454V166.59Z" fill="#EAA423"/>
<path d="M186.344 162.316L193.881 186.33H187.82L186.336 181.384H178.554L177.046 186.33H172.103L179.816 162.316H186.344ZM179.9 176.956H185.004L182.479 168.529L179.908 176.956H179.9Z" fill="#EAA423"/>
<path d="M33.1641 250.832C32.5749 250.718 31.9628 250.565 31.3123 250.382C30.8915 250.252 30.593 250.183 30.4017 250.176L30.5701 246.641H32.3301L32.8045 249.061C32.9422 249.221 33.2024 249.374 33.5697 249.496C33.937 249.618 34.3885 249.687 34.9088 249.687C35.6817 249.687 36.2556 249.519 36.6458 249.176C37.0284 248.832 37.2197 248.366 37.2197 247.779C37.2197 247.367 37.0973 247 36.8524 246.695C36.6076 246.382 36.2632 246.099 35.8271 245.84C35.3909 245.58 34.794 245.283 34.0365 244.939C33.0417 244.489 32.1923 243.909 31.5036 243.206C30.8149 242.504 30.4706 241.58 30.4706 240.435C30.4706 239.733 30.6543 239.084 31.0216 238.504C31.3889 237.924 31.9475 237.458 32.6897 237.107C33.432 236.756 34.3655 236.581 35.4751 236.581C36.1484 236.581 36.73 236.626 37.2274 236.71C37.7248 236.802 38.2604 236.916 38.8267 237.069C39.1328 237.168 39.3623 237.229 39.5307 237.237L39.4159 240.603H37.6942L37.258 238.275C37.1662 238.161 36.9672 238.054 36.6611 237.962C36.3474 237.871 36.0107 237.817 35.6281 237.817C34.9318 237.817 34.4114 237.977 34.0671 238.306C33.7151 238.634 33.5467 239.054 33.5467 239.573C33.5467 240.023 33.6921 240.42 33.9829 240.764C34.2737 241.107 34.6257 241.39 35.0389 241.626C35.4521 241.863 36.0796 242.183 36.9213 242.603C37.5947 242.932 38.1762 243.26 38.6736 243.596C39.171 243.931 39.5995 244.359 39.9515 244.893C40.3035 245.42 40.4795 246.038 40.4795 246.748C40.4795 247.458 40.3112 248.107 39.9745 248.756C39.6378 249.397 39.0715 249.931 38.2604 250.366C37.4493 250.794 36.3933 251.008 35.0772 251.008C34.3808 251.008 33.738 250.954 33.1565 250.84L33.1641 250.832Z" fill="#220D0F"/>
<path d="M41.7804 249.55L42.7829 249.382V242.275L41.6656 241.932V240.458L45.1167 240.046L45.2698 240.122L45.6524 240.649V241.596C46.0579 241.184 46.6472 240.825 47.4353 240.527C48.2158 240.229 48.8892 240.084 49.4478 240.084C50.1289 240.084 50.6798 240.199 51.1083 240.428C51.5292 240.657 51.8506 241.008 52.0648 241.489C52.4933 241.084 53.0366 240.748 53.6871 240.489C54.3375 240.229 54.9956 240.092 55.669 240.092C56.7785 240.092 57.582 240.413 58.0641 241.054C58.5538 241.695 58.791 242.748 58.791 244.214V249.397L59.9312 249.565V250.809H54.7966V249.565L55.646 249.397V244.29C55.646 243.382 55.5389 242.756 55.3323 242.397C55.1257 242.046 54.7431 241.871 54.1845 241.871C53.6258 241.871 52.9984 242.115 52.3633 242.611C52.4398 243.077 52.478 243.611 52.478 244.222V249.405L53.5417 249.573V250.817H48.3689V249.573L49.3177 249.405V244.244C49.3177 243.351 49.2183 242.733 49.0269 242.39C48.8356 242.046 48.4607 241.878 47.9174 241.878C47.5654 241.878 47.2134 241.954 46.8614 242.115C46.5171 242.275 46.211 242.466 45.9585 242.695V249.405L46.9838 249.573V250.817H41.7881V249.573L41.7804 249.55Z" fill="#220D0F"/>
<path d="M62.2879 242.267L61.0177 241.909V240.489L64.8131 240.038H64.8514L65.4406 240.435V249.382L66.5808 249.55V250.794H61.1248V249.55L62.3032 249.382V242.275L62.2879 242.267ZM62.2497 238.222C61.9436 237.932 61.7982 237.558 61.7982 237.107C61.7982 236.581 61.9666 236.145 62.3032 235.802C62.6399 235.458 63.0914 235.291 63.6577 235.291C64.2239 235.291 64.6601 235.436 64.9662 235.726C65.2723 236.016 65.4176 236.39 65.4176 236.84C65.4176 237.382 65.2493 237.817 64.905 238.153C64.5606 238.489 64.0862 238.657 63.4664 238.657H63.4434C62.9537 238.657 62.5558 238.512 62.2497 238.222Z" fill="#220D0F"/>
<path d="M68.8687 237.145L67.5449 236.901V235.748L71.3327 235.298H71.3863L71.9372 235.695V249.389L73.1692 249.557V250.801H67.6521V249.557L68.8687 249.389V237.153V237.145Z" fill="#220D0F"/>
<path d="M75.4495 249.534C74.6154 248.557 74.1946 247.221 74.1946 245.534C74.1946 244.389 74.4088 243.397 74.8374 242.565C75.2659 241.733 75.8704 241.099 76.6509 240.664C77.4314 240.229 78.342 240.008 79.3903 240.008C80.7142 240.008 81.7319 240.344 82.4359 241.008C83.1399 241.68 83.4995 242.619 83.5225 243.848C83.5225 244.657 83.4689 245.305 83.3541 245.794H77.4238C77.485 246.863 77.7451 247.679 78.2119 248.244C78.671 248.809 79.3215 249.084 80.1556 249.084C80.6223 249.084 81.1121 249.008 81.6247 248.847C82.1374 248.687 82.5507 248.511 82.8644 248.305L83.3924 249.458C83.0633 249.824 82.5047 250.168 81.7166 250.496C80.9284 250.824 80.1173 250.985 79.2985 250.985C77.5691 250.985 76.2836 250.496 75.4495 249.519V249.534ZM80.5075 244.55L80.5229 243.756C80.5229 242.962 80.4157 242.359 80.2015 241.939C79.9872 241.527 79.6199 241.313 79.0996 241.313C78.5792 241.313 78.1584 241.542 77.8676 242C77.5768 242.458 77.4161 243.306 77.3932 244.542H80.4999L80.5075 244.55Z" fill="#220D0F"/>
<path d="M90.6465 241.87H89.1697V240.695L90.6465 240.313V239.519C90.6465 238.672 90.8761 237.909 91.3276 237.214C91.779 236.519 92.3912 235.97 93.1564 235.565C93.9216 235.161 94.748 234.962 95.628 234.962C96.0948 234.962 96.5233 235.023 96.8983 235.153V237.893C96.7605 237.741 96.4851 237.596 96.0795 237.451C95.6739 237.306 95.276 237.229 94.8858 237.229C94.4726 237.229 94.1741 237.336 93.9981 237.55C93.8221 237.764 93.7303 238.115 93.7303 238.611V240.298H96.003V241.87H93.7303V249.374L95.6433 249.542V250.786H89.1773V249.542L90.6389 249.374V241.87H90.6465Z" fill="#220D0F"/>
<path d="M98.0003 242.519C98.4823 241.68 99.1251 241.054 99.9439 240.641C100.763 240.222 101.65 240.016 102.622 240.016C104.214 240.016 105.461 240.489 106.364 241.443C107.267 242.397 107.718 243.718 107.718 245.42C107.718 246.664 107.481 247.71 106.999 248.542C106.517 249.374 105.874 249.992 105.063 250.397C104.252 250.801 103.349 251 102.354 251C100.778 251 99.5307 250.527 98.6277 249.572C97.7248 248.618 97.2733 247.29 97.2733 245.595C97.2733 244.382 97.5105 243.359 97.9926 242.519H98.0003ZM103.908 248.702C104.206 248.053 104.351 247.038 104.351 245.649C104.351 244.176 104.206 243.084 103.923 242.389C103.64 241.687 103.158 241.336 102.492 241.336C101.252 241.336 100.633 242.68 100.633 245.366C100.633 246.832 100.786 247.916 101.084 248.618C101.39 249.321 101.872 249.679 102.546 249.679C103.15 249.679 103.602 249.359 103.9 248.702H103.908Z" fill="#220D0F"/>
<path d="M109.417 249.55L110.573 249.382V242.275L109.455 241.932V240.458L112.6 240.046H112.654L113.182 240.443V240.893L113.128 242.466H113.182C113.274 242.176 113.473 241.84 113.786 241.451C114.1 241.069 114.506 240.733 114.988 240.451C115.47 240.168 116.006 240.023 116.572 240.023C116.901 240.023 117.153 240.069 117.329 240.153V243.443C117.13 243.29 116.909 243.168 116.671 243.084C116.434 243 116.136 242.954 115.768 242.954C115.317 242.954 114.904 243.015 114.536 243.138C114.169 243.26 113.878 243.389 113.664 243.542V249.382L115.745 249.573V250.801H109.394V249.557L109.417 249.55Z" fill="#220D0F"/>
<path d="M123.045 249.55L124.048 249.382V242.275L122.931 241.932V240.458L126.382 240.046L126.535 240.122L126.917 240.649V241.596C127.323 241.184 127.912 240.825 128.7 240.527C129.481 240.229 130.154 240.084 130.713 240.084C131.394 240.084 131.945 240.199 132.373 240.428C132.794 240.657 133.116 241.008 133.33 241.489C133.758 241.084 134.302 240.748 134.952 240.489C135.603 240.229 136.261 240.092 136.934 240.092C138.044 240.092 138.847 240.413 139.329 241.054C139.819 241.695 140.056 242.748 140.056 244.214V249.397L141.196 249.565V250.809H136.062V249.565L136.911 249.397V244.29C136.911 243.382 136.804 242.756 136.597 242.397C136.391 242.046 136.008 241.871 135.449 241.871C134.891 241.871 134.263 242.115 133.628 242.611C133.705 243.077 133.743 243.611 133.743 244.222V249.405L134.807 249.573V250.817H129.634V249.573L130.583 249.405V244.244C130.583 243.351 130.483 242.733 130.292 242.39C130.101 242.046 129.726 241.878 129.182 241.878C128.83 241.878 128.478 241.954 128.126 242.115C127.782 242.275 127.476 242.466 127.223 242.695V249.405L128.249 249.573V250.817H123.053V249.573L123.045 249.55Z" fill="#220D0F"/>
<path d="M143.553 242.267L142.283 241.909V240.489L146.078 240.038H146.117L146.706 240.435V249.382L147.846 249.55V250.794H142.39V249.55L143.568 249.382V242.275L143.553 242.267ZM143.515 238.222C143.209 237.932 143.063 237.558 143.063 237.107C143.063 236.581 143.232 236.145 143.568 235.802C143.905 235.458 144.357 235.291 144.923 235.291C145.489 235.291 145.925 235.436 146.231 235.726C146.537 236.016 146.683 236.39 146.683 236.84C146.683 237.382 146.514 237.817 146.17 238.153C145.826 238.489 145.351 238.657 144.732 238.657H144.709C144.219 238.657 143.821 238.512 143.515 238.222Z" fill="#220D0F"/>
<path d="M150.134 237.145L148.81 236.901V235.748L152.598 235.298H152.651L153.202 235.695V249.389L154.434 249.557V250.801H148.917V249.557L150.134 249.389V237.153V237.145Z" fill="#220D0F"/>
<path d="M156.715 249.534C155.881 248.557 155.46 247.221 155.46 245.534C155.46 244.389 155.674 243.397 156.102 242.565C156.531 241.733 157.136 241.099 157.916 240.664C158.697 240.229 159.607 240.008 160.655 240.008C161.979 240.008 162.997 240.344 163.701 241.008C164.405 241.68 164.765 242.619 164.788 243.848C164.788 244.657 164.734 245.305 164.619 245.794H158.689C158.75 246.863 159.01 247.679 159.477 248.244C159.936 248.809 160.587 249.084 161.421 249.084C161.887 249.084 162.377 249.008 162.89 248.847C163.403 248.687 163.816 248.511 164.13 248.305L164.658 249.458C164.328 249.824 163.77 250.168 162.982 250.496C162.194 250.824 161.382 250.985 160.564 250.985C158.834 250.985 157.549 250.496 156.715 249.519V249.534ZM161.773 244.55L161.788 243.756C161.788 242.962 161.681 242.359 161.467 241.939C161.252 241.527 160.885 241.313 160.365 241.313C159.844 241.313 159.423 241.542 159.133 242C158.842 242.458 158.681 243.306 158.658 244.542H161.765L161.773 244.55Z" fill="#220D0F"/>
<path d="M168.537 249.229C168.629 249.366 168.828 249.496 169.157 249.611C169.486 249.725 169.807 249.779 170.136 249.779C170.657 249.779 171.047 249.672 171.322 249.45C171.59 249.229 171.728 248.947 171.728 248.588C171.728 248.206 171.552 247.901 171.2 247.649C170.848 247.405 170.266 247.107 169.455 246.748L168.736 246.428C167.917 246.061 167.297 245.618 166.884 245.092C166.471 244.565 166.264 243.901 166.264 243.099C166.264 242.519 166.433 242 166.777 241.542C167.121 241.084 167.611 240.718 168.254 240.458C168.897 240.191 169.654 240.061 170.527 240.061C171.131 240.061 171.659 240.1 172.103 240.176C172.547 240.252 172.991 240.344 173.45 240.458C173.756 240.55 173.978 240.596 174.131 240.611V243.183H172.44L171.95 241.725C171.889 241.611 171.736 241.512 171.498 241.413C171.261 241.321 170.986 241.267 170.68 241.267C170.198 241.267 169.823 241.374 169.539 241.58C169.256 241.787 169.126 242.069 169.126 242.42C169.126 242.825 169.287 243.145 169.601 243.374C169.914 243.603 170.419 243.886 171.116 244.199L171.514 244.367C172.539 244.794 173.343 245.26 173.924 245.756C174.506 246.252 174.796 246.939 174.796 247.809C174.796 248.741 174.422 249.511 173.679 250.107C172.937 250.71 171.835 251.008 170.381 251.008C169.708 251.008 169.119 250.954 168.598 250.847C168.078 250.74 167.512 250.595 166.892 250.42L166.264 250.252V247.741H168.063L168.537 249.237V249.229Z" fill="#220D0F"/>
</g>
<defs>
<clipPath id="clip0_15_358">
<rect width="199" height="251" fill="white"/>
</clipPath>
</defs>
</svg>
